<mxfile host="app.diagrams.net" agent="Mozilla/5.0 (Windows NT 10.0; Win64; x64) AppleWebKit/537.36 (KHTML, like Gecko) Chrome/127.0.0.0 Safari/537.36 Edg/127.0.0.0" version="24.7.6">
  <diagram name="第 1 页" id="hbjMxxCAED7JAQasoX7D">
    <mxGraphModel dx="960" dy="631" grid="1" gridSize="10" guides="1" tooltips="1" connect="1" arrows="1" fold="1" page="1" pageScale="1" pageWidth="827" pageHeight="1169" math="0" shadow="0">
      <root>
        <mxCell id="0" />
        <mxCell id="1" parent="0" />
        <mxCell id="-JA800IVU4irEzKhAgy7-29" value="" style="group" vertex="1" connectable="0" parent="1">
          <mxGeometry x="40" y="40" width="100" height="60" as="geometry" />
        </mxCell>
        <mxCell id="-JA800IVU4irEzKhAgy7-26" value="" style="rounded=1;whiteSpace=wrap;html=1;fillColor=#FFCCCC;strokeColor=#23445d;" vertex="1" parent="-JA800IVU4irEzKhAgy7-29">
          <mxGeometry width="80" height="40" as="geometry" />
        </mxCell>
        <mxCell id="-JA800IVU4irEzKhAgy7-27" value="" style="rounded=1;whiteSpace=wrap;html=1;fillColor=#FFCCCC;strokeColor=#23445d;" vertex="1" parent="-JA800IVU4irEzKhAgy7-29">
          <mxGeometry x="10" y="10" width="80" height="40" as="geometry" />
        </mxCell>
        <mxCell id="-JA800IVU4irEzKhAgy7-28" value="" style="rounded=1;whiteSpace=wrap;html=1;fillColor=#FFCCCC;strokeColor=#23445d;" vertex="1" parent="-JA800IVU4irEzKhAgy7-29">
          <mxGeometry x="20" y="20" width="80" height="40" as="geometry" />
        </mxCell>
        <mxCell id="-JA800IVU4irEzKhAgy7-30" value="&lt;font face=&quot;Helvetica&quot; style=&quot;font-size: 18px;&quot;&gt;augmentation prompt&lt;/font&gt;" style="text;html=1;align=center;verticalAlign=middle;whiteSpace=wrap;rounded=0;" vertex="1" parent="1">
          <mxGeometry x="120" y="55" width="240" height="30" as="geometry" />
        </mxCell>
      </root>
    </mxGraphModel>
  </diagram>
</mxfile>
